<svg xmlns="http://www.w3.org/2000/svg"><defs><symbol id="icon" width="14" height="14" viewBox="0 0 14 14" fill="none" >
<path fill-rule="evenodd" clip-rule="evenodd" d="M4.89653 1.50024H4.91837H9.08162H9.10345C9.77072 1.50024 10.302 1.50024 10.7308 1.53527C11.1701 1.57116 11.5456 1.6463 11.8898 1.82166C12.4447 2.10439 12.8958 2.55553 13.1786 3.11042C13.3539 3.45458 13.4291 3.83012 13.465 4.26941C13.5 4.69819 13.5 5.22947 13.5 5.89672V5.89676V5.91861V8.08188V8.10373V8.10377C13.5 8.77101 13.5 9.3023 13.465 9.73108C13.4291 10.1704 13.3539 10.5459 13.1786 10.8901C12.8958 11.445 12.4447 11.8961 11.8898 12.1788C11.5456 12.3542 11.1701 12.4293 10.7308 12.4652C10.302 12.5003 9.77072 12.5002 9.10346 12.5002H9.10341H9.08162H4.91837H4.89657H4.89652C4.22926 12.5002 3.69795 12.5003 3.26916 12.4652C2.82987 12.4293 2.45433 12.3542 2.11016 12.1788C1.55527 11.8961 1.10414 11.445 0.821409 10.8901C0.646048 10.5459 0.570909 10.1704 0.535019 9.73106C0.499988 9.30228 0.499993 8.77097 0.5 8.10371V8.10369V8.08186L0.500011 5.91859L0.500011 5.89675C0.500009 5.22949 0.500009 4.69818 0.535044 4.2694C0.570937 3.83011 0.646079 3.45457 0.821441 3.11041C1.10417 2.55552 1.55531 2.10439 2.11019 1.82166C2.45436 1.6463 2.82989 1.57116 3.26918 1.53527C3.69797 1.50024 4.22927 1.50024 4.89653 1.50024ZM3.35061 2.53195C2.97316 2.56279 2.74388 2.62111 2.56418 2.71267C2.19746 2.89952 1.8993 3.19768 1.71245 3.5644C1.62088 3.7441 1.56256 3.97338 1.53172 4.35083C1.51643 4.538 1.50851 4.75072 1.50441 5.00022H12.4956C12.4915 4.75072 12.4836 4.53801 12.4683 4.35084C12.4374 3.97339 12.3791 3.7441 12.2876 3.56441C12.1007 3.19768 11.8025 2.89953 11.4358 2.71267C11.2561 2.62111 11.0268 2.56279 10.6494 2.53195C10.2661 2.50063 9.77564 2.50024 9.08162 2.50024H4.91837C4.22435 2.50024 3.7339 2.50063 3.35061 2.53195ZM12.5 6.00022H1.50001L1.5 8.0003H12.5V6.00022ZM1.5317 9.64964C1.51641 9.46248 1.50849 9.24978 1.50439 9.0003H12.4956C12.4915 9.24978 12.4836 9.46249 12.4683 9.64965C12.4374 10.0271 12.3791 10.2564 12.2876 10.4361C12.1007 10.8028 11.8025 11.101 11.4358 11.2878C11.2561 11.3794 11.0268 11.4377 10.6494 11.4685C10.2661 11.4999 9.77564 11.5002 9.08162 11.5002H4.91837C4.22434 11.5002 3.73388 11.4999 3.35059 11.4685C2.97314 11.4377 2.74385 11.3794 2.56415 11.2878C2.19743 11.101 1.89927 10.8028 1.71242 10.4361C1.62086 10.2564 1.56254 10.0271 1.5317 9.64964Z" fill="var(--color)"/>
</symbol>
</defs></svg>