<svg xmlns="http://www.w3.org/2000/svg"><defs><symbol id="icon" width="12" height="12" viewBox="0 0 12 12" fill="none" >
<path fill-rule="evenodd" clip-rule="evenodd" d="M5.22812 0.75H6.77188C7.4534 0.749996 7.99542 0.749993 8.43271 0.785721C8.88051 0.822308 9.26235 0.898839 9.61197 1.07698C10.1765 1.3646 10.6354 1.82354 10.923 2.38803C11.1012 2.73765 11.1777 3.11949 11.2143 3.56729C11.25 4.00458 11.25 4.54659 11.25 5.22811V6.77189C11.25 7.45341 11.25 7.99542 11.2143 8.43271C11.1777 8.88051 11.1012 9.26235 10.923 9.61197C10.6354 10.1765 10.1765 10.6354 9.61197 10.923C9.26235 11.1012 8.88051 11.1777 8.43271 11.2143C7.99542 11.25 7.45341 11.25 6.77189 11.25H5.22811C4.54659 11.25 4.00458 11.25 3.56729 11.2143C3.11949 11.1777 2.73765 11.1012 2.38803 10.923C1.82354 10.6354 1.3646 10.1765 1.07698 9.61197C0.898839 9.26235 0.822308 8.88051 0.785721 8.43271C0.749993 7.99542 0.749996 7.4534 0.75 6.77188V5.22812C0.749996 4.5466 0.749993 4.00458 0.785721 3.56729C0.822308 3.11949 0.898839 2.73765 1.07698 2.38803C1.3646 1.82354 1.82354 1.3646 2.38803 1.07698C2.73765 0.898839 3.11949 0.822308 3.56729 0.785721C4.00458 0.749993 4.5466 0.749996 5.22812 0.75ZM3.64872 1.7824C3.26276 1.81393 3.02717 1.87365 2.84202 1.96799C2.46569 2.15973 2.15973 2.46569 1.96799 2.84202C1.87365 3.02717 1.81393 3.26276 1.7824 3.64872C1.75039 4.04052 1.75 4.54168 1.75 5.25V6.75C1.75 7.45832 1.75039 7.95948 1.7824 8.35128C1.81393 8.73724 1.87365 8.97283 1.96799 9.15798C2.15973 9.53431 2.46569 9.84027 2.84202 10.032C3.02717 10.1264 3.26276 10.1861 3.64872 10.2176C4.04052 10.2496 4.54168 10.25 5.25 10.25H6.75C7.45832 10.25 7.95948 10.2496 8.35128 10.2176C8.73724 10.1861 8.97283 10.1264 9.15798 10.032C9.53431 9.84027 9.84027 9.53431 10.032 9.15798C10.1264 8.97283 10.1861 8.73724 10.2176 8.35128C10.2496 7.95948 10.25 7.45832 10.25 6.75V5.25C10.25 4.54168 10.2496 4.04052 10.2176 3.64872C10.1861 3.26276 10.1264 3.02717 10.032 2.84202C9.84027 2.46569 9.53431 2.15973 9.15798 1.96799C8.97283 1.87365 8.73724 1.81393 8.35128 1.7824C7.95948 1.75039 7.45832 1.75 6.75 1.75H5.25C4.54168 1.75 4.04052 1.75039 3.64872 1.7824Z" fill="var(--color)"/>
<path fill-rule="evenodd" clip-rule="evenodd" d="M7.85355 4.14645C8.04882 4.34171 8.04882 4.65829 7.85355 4.85355L4.10355 8.60355C3.90829 8.79882 3.59171 8.79882 3.39645 8.60355C3.20118 8.40829 3.20118 8.09171 3.39645 7.89645L7.14645 4.14645C7.34171 3.95118 7.65829 3.95118 7.85355 4.14645Z" fill="var(--color)"/>
<path fill-rule="evenodd" clip-rule="evenodd" d="M4.5 4C4.5 3.72386 4.72386 3.5 5 3.5H8C8.27614 3.5 8.5 3.72386 8.5 4V7C8.5 7.27614 8.27614 7.5 8 7.5C7.72386 7.5 7.5 7.27614 7.5 7V4.5H5C4.72386 4.5 4.5 4.27614 4.5 4Z" fill="var(--color)"/>
</symbol>
</defs></svg>