<svg xmlns="http://www.w3.org/2000/svg"><defs><symbol id="icon" width="14" height="14" viewBox="0 0 14 14" fill="none" >
<path fill-rule="evenodd" clip-rule="evenodd" d="M4.5 1.50012L4.47812 1.50012C3.7966 1.50012 3.25458 1.50011 2.81729 1.53584C2.36949 1.57243 1.98765 1.64896 1.63803 1.8271C1.07354 2.11472 0.614601 2.57366 0.326981 3.13815C0.148839 3.48777 0.072308 3.86961 0.0357212 4.31741C-7.18571e-06 4.75471 -3.96706e-06 5.29672 8.60527e-08 5.97824L2.05262e-07 6.00012V8.00012L8.60527e-08 8.022C-3.96706e-06 8.70352 -7.18571e-06 9.24554 0.0357212 9.68283C0.072308 10.1306 0.148839 10.5125 0.326981 10.8621C0.614601 11.4266 1.07354 11.8855 1.63803 12.1731C1.98765 12.3513 2.36949 12.4278 2.81729 12.4644C3.25457 12.5001 3.79657 12.5001 4.47806 12.5001H4.47811H4.5H5.5C5.77614 12.5001 6 12.2763 6 12.0001C6 11.724 5.77614 11.5001 5.5 11.5001H4.5C3.79168 11.5001 3.29052 11.4997 2.89872 11.4677C2.51276 11.4362 2.27717 11.3765 2.09202 11.2821C1.7157 11.0904 1.40973 10.7844 1.21799 10.4081C1.12365 10.2229 1.06393 9.98736 1.0324 9.6014C1.00039 9.2096 1 8.70844 1 8.00012V6.00012C1 5.29181 1.00039 4.79064 1.0324 4.39884C1.06393 4.01288 1.12365 3.7773 1.21799 3.59214C1.40973 3.21582 1.71569 2.90986 2.09202 2.71811C2.27717 2.62377 2.51276 2.56406 2.89872 2.53252C3.29052 2.50051 3.79168 2.50012 4.5 2.50012H10C10.967 2.50012 11.7747 3.1869 11.96 4.09959C12.0149 4.37021 12.2788 4.54506 12.5495 4.49013C12.8201 4.4352 12.9949 4.17128 12.94 3.90066C12.662 2.5311 11.452 1.50012 10 1.50012H4.5ZM2.82927 4.62376C2.62145 4.44192 2.30557 4.46298 2.12372 4.6708C1.94188 4.87862 1.96294 5.1945 2.17076 5.37634L5.63861 8.41071C6.13617 8.84607 6.88607 8.8211 7.35357 8.35361C7.54883 8.15834 7.54883 7.84176 7.35357 7.6465C7.1583 7.45124 6.84172 7.45124 6.64646 7.6465C6.55123 7.74173 6.39847 7.74682 6.29711 7.65813L2.82927 4.62376ZM11.9871 10.5001L8.92468 10.5001C8.414 10.5001 8.00001 10.914 8.00001 11.4247C8.00001 11.4663 8.03375 11.5001 8.07536 11.5001L12.8364 11.5001C12.878 11.5001 12.9118 11.4663 12.9118 11.4247C12.9118 10.914 12.4978 10.5001 11.9871 10.5001ZM8.92467 9.50006L11.9871 9.50006C13.0501 9.50005 13.9118 10.3618 13.9118 11.4247C13.9118 12.0186 13.4303 12.5001 12.8364 12.5001L8.07536 12.5001C7.48146 12.5001 7.00001 12.0186 7.00001 11.4247C7.00001 10.3618 7.86171 9.50006 8.92467 9.50006ZM9.50001 7.00004C9.50001 6.44776 9.94773 6.00004 10.5 6.00004C11.0523 6.00004 11.5 6.44776 11.5 7.00004C11.5 7.55233 11.0523 8.00004 10.5 8.00004C9.94773 8.00004 9.50001 7.55233 9.50001 7.00004ZM10.5 5.00004C9.39544 5.00004 8.50001 5.89547 8.50001 7.00004C8.50001 8.10461 9.39544 9.00004 10.5 9.00004C11.6046 9.00004 12.5 8.10461 12.5 7.00004C12.5 5.89547 11.6046 5.00004 10.5 5.00004Z" fill="var(--color)"/>
</symbol>
</defs></svg>