<svg xmlns="http://www.w3.org/2000/svg"><defs><symbol id="icon" width="14" height="14" viewBox="0 0 14 14" fill="none" >
<g clip-path="url(#clip0_4_277971)">
<path fill-rule="evenodd" clip-rule="evenodd" d="M7.50588 1.50015C7.89657 1.50015 8.01042 1.50337 8.11212 1.52778C8.21416 1.55228 8.3117 1.59268 8.40117 1.64751C8.49035 1.70216 8.57313 1.78039 8.84938 2.05665L10.9435 4.15076C11.2198 4.42702 11.298 4.50979 11.3526 4.59898C11.4075 4.68845 11.4479 4.78599 11.4724 4.88803C11.4968 4.98973 11.5 5.10358 11.5 5.49427L11.5 9.00016C11.5 9.70847 11.4996 10.2096 11.4676 10.6014C11.4361 10.9874 11.3763 11.223 11.282 11.4081C11.0903 11.7845 10.7843 12.0904 10.408 12.2822C10.2228 12.3765 9.98723 12.4362 9.60127 12.4678C9.20947 12.4998 8.70831 12.5002 7.99999 12.5002H6.00004C5.29172 12.5002 4.79056 12.4998 4.39876 12.4678C4.0128 12.4362 3.77721 12.3765 3.59206 12.2822C3.21573 12.0904 2.90977 11.7845 2.71802 11.4081C2.6237 11.223 2.56398 10.9873 2.53244 10.6011C2.50042 10.209 2.50003 9.70742 2.50003 8.99859L2.50001 7.00014L2.5 5.00169C2.5 4.29287 2.50038 3.79131 2.53239 3.39924C2.56393 3.01298 2.62365 2.7773 2.71798 2.59218C2.90972 2.21585 3.21569 1.90989 3.59201 1.71814C3.77717 1.6238 4.01275 1.56409 4.39871 1.53255C4.79051 1.50054 5.29167 1.50015 5.99999 1.50015H7.50588ZM8.34557 0.555414C8.11422 0.499872 7.87432 0.499986 7.55682 0.500138L7.50588 0.500154H5.99999L5.97811 0.500153C5.29659 0.500149 4.75457 0.500146 4.31728 0.535875C3.86948 0.572462 3.48764 0.648993 3.13802 0.827136C2.57353 1.11476 2.11459 1.5737 1.82697 2.13819C1.64881 2.48785 1.57229 2.86985 1.53571 3.31786C1.49999 3.7554 1.49999 4.29778 1.5 4.97982V4.97983V5.0017L1.50001 7.00015L1.50003 8.99859L1.50003 9.02046C1.50003 9.70252 1.50003 10.2449 1.53575 10.6825C1.57234 11.1305 1.64886 11.5125 1.82702 11.8621C2.11464 12.4266 2.57358 12.8856 3.13807 13.1732C3.48769 13.3513 3.86953 13.4278 4.31733 13.4644C4.75461 13.5002 5.29661 13.5002 5.97811 13.5002H5.97815H6.00004H7.99999H8.02188H8.02193C8.70342 13.5002 9.24542 13.5002 9.6827 13.4644C10.1305 13.4278 10.5123 13.3513 10.862 13.1732C11.4264 12.8856 11.8854 12.4266 12.173 11.8621C12.3512 11.5125 12.4277 11.1307 12.4643 10.6829C12.5 10.2456 12.5 9.70358 12.5 9.02207V9.02204V9.00016L12.5 5.49427L12.5 5.44332C12.5002 5.12582 12.5003 4.88593 12.4447 4.65458C12.3957 4.45051 12.3149 4.25542 12.2053 4.07648C12.081 3.87362 11.9112 3.70406 11.6866 3.47967L11.6506 3.44366L9.55649 1.34954L9.52048 1.31351L9.52047 1.3135C9.29608 1.0889 9.12653 0.919185 8.92367 0.794873C8.74473 0.685216 8.54964 0.604407 8.34557 0.555414ZM8.5 3.00012C8.5 2.72398 8.27614 2.50012 8 2.50012C7.72386 2.50012 7.5 2.72398 7.5 3.00012V4.00012C7.5 4.82855 8.17157 5.50012 9 5.50012H10C10.2761 5.50012 10.5 5.27626 10.5 5.00012C10.5 4.72398 10.2761 4.50012 10 4.50012H9C8.72386 4.50012 8.5 4.27626 8.5 4.00012V3.00012Z" fill="var(--color)"/>
</g>
<defs>
<clipPath id="clip0_4_277971">
<rect width="14" height="14" fill="white"/>
</clipPath>
</defs>
</symbol>
</defs></svg>