<svg xmlns="http://www.w3.org/2000/svg"><defs><symbol id="icon" width="14" height="14" viewBox="0 0 14 14" fill="none" >
<g clip-path="url(#clip0_4_279094)">
<path fill-rule="evenodd" clip-rule="evenodd" d="M6.26171 0.603145C6.73137 0.391872 7.26903 0.391888 7.73868 0.603189C8.06067 0.748055 8.29623 1.01649 8.50729 1.32145C8.71717 1.62473 8.94869 2.03488 9.23437 2.541L9.24686 2.56313L12.6839 8.65201L12.6963 8.67397L12.6963 8.67405C12.9736 9.16517 13.1987 9.564 13.3462 9.8921C13.4949 10.223 13.6005 10.5558 13.5619 10.9006C13.5054 11.4051 13.2385 11.8623 12.8269 12.1596C12.5456 12.3626 12.2039 12.4343 11.8426 12.4674C11.4844 12.5003 11.0263 12.5003 10.4623 12.5003H10.4371H3.56259H3.53737C2.97334 12.5003 2.5153 12.5003 2.15703 12.4674C1.79572 12.4343 1.45396 12.3626 1.17273 12.1595C0.761114 11.8623 0.494173 11.4051 0.437692 10.9005C0.399103 10.5558 0.504738 10.2229 0.653507 9.892C0.801014 9.56387 1.02619 9.16503 1.30348 8.67388L1.30349 8.67386L1.3035 8.67384L1.3159 8.65188L4.75341 2.563L4.7659 2.54086L4.7659 2.54086L4.76591 2.54085C5.05162 2.03476 5.28316 1.62462 5.49306 1.32136C5.70413 1.01641 5.93971 0.747991 6.26171 0.603145ZM7.32838 1.51514C7.11965 1.42123 6.88069 1.42122 6.67195 1.51512C6.60492 1.54527 6.49782 1.6268 6.31531 1.89049C6.13468 2.15146 5.92541 2.52112 5.62422 3.05462L2.18671 9.1435C1.89405 9.66189 1.69201 10.0208 1.56558 10.302C1.43822 10.5853 1.42332 10.7163 1.43149 10.7893C1.45659 11.0135 1.57523 11.2167 1.75817 11.3488C1.81769 11.3918 1.93904 11.4432 2.24838 11.4716C2.55544 11.4998 2.96729 11.5003 3.56259 11.5003H10.4371C11.0324 11.5003 11.4442 11.4998 11.7513 11.4716C12.0606 11.4432 12.1819 11.3918 12.2414 11.3488C12.4244 11.2167 12.543 11.0135 12.5681 10.7893C12.5763 10.7163 12.5614 10.5854 12.4341 10.3021C12.3077 10.0208 12.1057 9.66196 11.8131 9.14358L8.37602 3.0547C8.07487 2.52118 7.86562 2.15151 7.685 1.89053C7.50251 1.62683 7.39541 1.5453 7.32838 1.51514ZM6.99988 4.00022C7.27602 4.00022 7.49988 4.22408 7.49988 4.50022V7.00022C7.49988 7.27636 7.27602 7.50022 6.99988 7.50022C6.72373 7.50022 6.49988 7.27636 6.49988 7.00022V4.50022C6.49988 4.22408 6.72373 4.00022 6.99988 4.00022ZM7 10.2502C7.41421 10.2502 7.75 9.91441 7.75 9.50022C7.75 9.08602 7.41421 8.75024 7 8.75024C6.58579 8.75024 6.25 9.08602 6.25 9.50022C6.25 9.91441 6.58579 10.2502 7 10.2502Z" fill="var(--color)"/>
</g>
<defs>
<clipPath id="clip0_4_279094">
<rect width="14" height="14" fill="white" transform="translate(0 0.000244141)"/>
</clipPath>
</defs>
</symbol>
</defs></svg>